<svg id="visual" viewBox="0 0 960 100" width="960" height="100" xmlns="http://www.w3.org/2000/svg" xmlns:xlink="http://www.w3.org/1999/xlink" version="1.1"><rect x="0" y="0" width="960" height="100" fill="#f0f0f0"></rect><path d="M0 26L7 26.7C14 27.3 28 28.7 41.8 30.5C55.7 32.3 69.3 34.7 83.2 34.3C97 34 111 31 125 33.8C139 36.7 153 45.3 167 55.2C181 65 195 76 208.8 68.2C222.7 60.3 236.3 33.7 250.2 29C264 24.3 278 41.7 292 49.8C306 58 320 57 334 58.5C348 60 362 64 375.8 66.5C389.7 69 403.3 70 417.2 66.7C431 63.3 445 55.7 459 54.2C473 52.7 487 57.3 501 61.5C515 65.7 529 69.3 542.8 67.8C556.7 66.3 570.3 59.7 584.2 56.2C598 52.7 612 52.3 626 58.3C640 64.3 654 76.7 668 84.3C682 92 696 95 709.8 86.3C723.7 77.7 737.3 57.3 751.2 45C765 32.7 779 28.3 793 33.2C807 38 821 52 835 50.8C849 49.7 863 33.3 876.8 35.7C890.7 38 904.3 59 918.2 59.2C932 59.3 946 38.7 953 28.3L960 18L960 0L953 0C946 0 932 0 918.2 0C904.3 0 890.7 0 876.8 0C863 0 849 0 835 0C821 0 807 0 793 0C779 0 765 0 751.2 0C737.3 0 723.7 0 709.8 0C696 0 682 0 668 0C654 0 640 0 626 0C612 0 598 0 584.2 0C570.3 0 556.7 0 542.8 0C529 0 515 0 501 0C487 0 473 0 459 0C445 0 431 0 417.2 0C403.3 0 389.7 0 375.8 0C362 0 348 0 334 0C320 0 306 0 292 0C278 0 264 0 250.2 0C236.3 0 222.7 0 208.8 0C195 0 181 0 167 0C153 0 139 0 125 0C111 0 97 0 83.2 0C69.3 0 55.7 0 41.8 0C28 0 14 0 7 0L0 0Z" fill="#f0f0f0"></path><path d="M0 60L7 55.2C14 50.3 28 40.7 41.8 38C55.7 35.3 69.3 39.7 83.2 42C97 44.3 111 44.7 125 43.3C139 42 153 39 167 41.5C181 44 195 52 208.8 50.2C222.7 48.3 236.3 36.7 250.2 32C264 27.3 278 29.7 292 33.3C306 37 320 42 334 48C348 54 362 61 375.8 64.5C389.7 68 403.3 68 417.2 70.8C431 73.7 445 79.3 459 81.3C473 83.3 487 81.7 501 81.2C515 80.7 529 81.3 542.8 73.8C556.7 66.3 570.3 50.7 584.2 47.2C598 43.7 612 52.3 626 56.3C640 60.3 654 59.7 668 57.2C682 54.7 696 50.3 709.8 44.8C723.7 39.3 737.3 32.7 751.2 29C765 25.3 779 24.7 793 32.3C807 40 821 56 835 64.3C849 72.7 863 73.3 876.8 74.2C890.7 75 904.3 76 918.2 67.5C932 59 946 41 953 32L960 23L960 0L953 0C946 0 932 0 918.2 0C904.3 0 890.7 0 876.8 0C863 0 849 0 835 0C821 0 807 0 793 0C779 0 765 0 751.2 0C737.3 0 723.7 0 709.8 0C696 0 682 0 668 0C654 0 640 0 626 0C612 0 598 0 584.2 0C570.3 0 556.7 0 542.8 0C529 0 515 0 501 0C487 0 473 0 459 0C445 0 431 0 417.2 0C403.3 0 389.7 0 375.8 0C362 0 348 0 334 0C320 0 306 0 292 0C278 0 264 0 250.2 0C236.3 0 222.7 0 208.8 0C195 0 181 0 167 0C153 0 139 0 125 0C111 0 97 0 83.2 0C69.3 0 55.7 0 41.8 0C28 0 14 0 7 0L0 0Z" fill="#f3f3f3"></path><path d="M0 10L7 16.5C14 23 28 36 41.8 37.3C55.7 38.7 69.3 28.3 83.2 27C97 25.7 111 33.3 125 39.5C139 45.7 153 50.3 167 48.3C181 46.3 195 37.7 208.8 34C222.7 30.3 236.3 31.7 250.2 34.7C264 37.7 278 42.3 292 45.7C306 49 320 51 334 53.5C348 56 362 59 375.8 58.7C389.7 58.3 403.3 54.7 417.2 52.7C431 50.7 445 50.3 459 44.8C473 39.3 487 28.7 501 28.5C515 28.3 529 38.7 542.8 40.5C556.7 42.3 570.3 35.7 584.2 34.3C598 33 612 37 626 42.2C640 47.3 654 53.7 668 55.8C682 58 696 56 709.8 57.2C723.7 58.3 737.3 62.7 751.2 64.7C765 66.7 779 66.3 793 56.3C807 46.3 821 26.7 835 19.2C849 11.7 863 16.3 876.8 24.7C890.7 33 904.3 45 918.2 42.3C932 39.7 946 22.3 953 13.7L960 5L960 0L953 0C946 0 932 0 918.2 0C904.3 0 890.7 0 876.8 0C863 0 849 0 835 0C821 0 807 0 793 0C779 0 765 0 751.2 0C737.3 0 723.7 0 709.8 0C696 0 682 0 668 0C654 0 640 0 626 0C612 0 598 0 584.2 0C570.3 0 556.7 0 542.8 0C529 0 515 0 501 0C487 0 473 0 459 0C445 0 431 0 417.2 0C403.3 0 389.7 0 375.8 0C362 0 348 0 334 0C320 0 306 0 292 0C278 0 264 0 250.2 0C236.3 0 222.7 0 208.8 0C195 0 181 0 167 0C153 0 139 0 125 0C111 0 97 0 83.2 0C69.3 0 55.7 0 41.8 0C28 0 14 0 7 0L0 0Z" fill="#f6f6f6"></path><path d="M0 51L7 49.5C14 48 28 45 41.8 38.2C55.7 31.3 69.3 20.7 83.2 18.7C97 16.7 111 23.3 125 28.7C139 34 153 38 167 35.5C181 33 195 24 208.8 22.7C222.7 21.3 236.3 27.7 250.2 26.3C264 25 278 16 292 11.2C306 6.3 320 5.7 334 5.8C348 6 362 7 375.8 13C389.7 19 403.3 30 417.2 29.7C431 29.3 445 17.7 459 14.3C473 11 487 16 501 21.3C515 26.7 529 32.3 542.8 36.7C556.7 41 570.3 44 584.2 39.2C598 34.3 612 21.7 626 17.3C640 13 654 17 668 18.8C682 20.7 696 20.3 709.8 20C723.7 19.7 737.3 19.3 751.2 21.7C765 24 779 29 793 26.2C807 23.3 821 12.7 835 14.7C849 16.7 863 31.3 876.8 31.5C890.7 31.7 904.3 17.3 918.2 12.3C932 7.3 946 11.7 953 13.8L960 16L960 0L953 0C946 0 932 0 918.2 0C904.3 0 890.7 0 876.8 0C863 0 849 0 835 0C821 0 807 0 793 0C779 0 765 0 751.2 0C737.3 0 723.7 0 709.8 0C696 0 682 0 668 0C654 0 640 0 626 0C612 0 598 0 584.2 0C570.3 0 556.7 0 542.8 0C529 0 515 0 501 0C487 0 473 0 459 0C445 0 431 0 417.2 0C403.3 0 389.7 0 375.8 0C362 0 348 0 334 0C320 0 306 0 292 0C278 0 264 0 250.2 0C236.3 0 222.7 0 208.8 0C195 0 181 0 167 0C153 0 139 0 125 0C111 0 97 0 83.2 0C69.3 0 55.7 0 41.8 0C28 0 14 0 7 0L0 0Z" fill="#f9f9f9"></path><path d="M0 24L7 22.3C14 20.7 28 17.3 41.8 19.5C55.7 21.7 69.3 29.3 83.2 30.3C97 31.3 111 25.7 125 23.8C139 22 153 24 167 24C181 24 195 22 208.8 21.8C222.7 21.7 236.3 23.3 250.2 24.2C264 25 278 25 292 24.2C306 23.3 320 21.7 334 23.5C348 25.3 362 30.7 375.8 33.8C389.7 37 403.3 38 417.2 34.8C431 31.7 445 24.3 459 21C473 17.7 487 18.3 501 20.5C515 22.7 529 26.3 542.8 26.8C556.7 27.3 570.3 24.7 584.2 24.5C598 24.3 612 26.7 626 24C640 21.3 654 13.7 668 15.5C682 17.3 696 28.7 709.8 28C723.7 27.3 737.3 14.7 751.2 12.2C765 9.7 779 17.3 793 22.2C807 27 821 29 835 29.3C849 29.7 863 28.3 876.8 29.3C890.7 30.3 904.3 33.7 918.2 34.3C932 35 946 33 953 32L960 31L960 0L953 0C946 0 932 0 918.2 0C904.3 0 890.7 0 876.8 0C863 0 849 0 835 0C821 0 807 0 793 0C779 0 765 0 751.2 0C737.3 0 723.7 0 709.8 0C696 0 682 0 668 0C654 0 640 0 626 0C612 0 598 0 584.2 0C570.3 0 556.7 0 542.8 0C529 0 515 0 501 0C487 0 473 0 459 0C445 0 431 0 417.2 0C403.3 0 389.7 0 375.8 0C362 0 348 0 334 0C320 0 306 0 292 0C278 0 264 0 250.2 0C236.3 0 222.7 0 208.8 0C195 0 181 0 167 0C153 0 139 0 125 0C111 0 97 0 83.2 0C69.3 0 55.7 0 41.8 0C28 0 14 0 7 0L0 0Z" fill="#fcfcfc"></path><path d="M0 27L7 24.3C14 21.7 28 16.3 41.8 12C55.7 7.7 69.3 4.3 83.2 4.8C97 5.3 111 9.7 125 13.3C139 17 153 20 167 20.7C181 21.3 195 19.7 208.8 16.2C222.7 12.7 236.3 7.3 250.2 7.3C264 7.3 278 12.7 292 15.7C306 18.7 320 19.3 334 18.7C348 18 362 16 375.8 17.2C389.7 18.3 403.3 22.7 417.2 22.8C431 23 445 19 459 15.5C473 12 487 9 501 7.7C515 6.3 529 6.7 542.8 6.5C556.7 6.3 570.3 5.7 584.2 8C598 10.3 612 15.7 626 17.2C640 18.7 654 16.3 668 15.5C682 14.7 696 15.3 709.8 14.8C723.7 14.3 737.3 12.7 751.2 10.5C765 8.3 779 5.7 793 4C807 2.3 821 1.7 835 5.7C849 9.7 863 18.3 876.8 21.7C890.7 25 904.3 23 918.2 21.5C932 20 946 19 953 18.5L960 18L960 0L953 0C946 0 932 0 918.2 0C904.3 0 890.7 0 876.8 0C863 0 849 0 835 0C821 0 807 0 793 0C779 0 765 0 751.2 0C737.3 0 723.7 0 709.8 0C696 0 682 0 668 0C654 0 640 0 626 0C612 0 598 0 584.2 0C570.3 0 556.7 0 542.8 0C529 0 515 0 501 0C487 0 473 0 459 0C445 0 431 0 417.2 0C403.3 0 389.7 0 375.8 0C362 0 348 0 334 0C320 0 306 0 292 0C278 0 264 0 250.2 0C236.3 0 222.7 0 208.8 0C195 0 181 0 167 0C153 0 139 0 125 0C111 0 97 0 83.2 0C69.3 0 55.7 0 41.8 0C28 0 14 0 7 0L0 0Z" fill="#ffffff"></path></svg>