<?xml version="1.0" encoding="utf-8"?>
<!-- Generator: Adobe Illustrator 24.1.2, SVG Export Plug-In . SVG Version: 6.00 Build 0)  -->
<svg version="1.1" id="visual" xmlns="http://www.w3.org/2000/svg" xmlns:xlink="http://www.w3.org/1999/xlink" x="0px" y="0px"
	 viewBox="0 0 960 75.8" style="enable-background:new 0 0 960 75.8;" xml:space="preserve">
<style type="text/css">
	.st0{fill:#F0F0F0;}
	.st1{fill:#F3F3F3;}
	.st2{fill:#F7F7F7;}
	.st3{fill:#FBFBFB;}
	.st4{fill:#FFFFFF;}
</style>
<rect class="st0" width="960" height="75.8"/>
<path class="st1" d="M0,63.8l7-2.2c7-2.1,21-6.5,34.8-16.8C55.7,34.5,69.3,18.1,83.2,9.5C97,0.8,111-0.2,125,1.5
	c14,1.6,28,6,42,13.6c14,7.7,28,18.7,41.8,21.9c13.9,3.1,27.5-1.5,41.4-2.5c13.8-1,27.8,1.6,41.8-2.4s28-14.6,42-16.6
	s28,4.6,41.8,14.1c13.9,9.5,27.5,21.9,41.4,26.7c13.8,4.8,27.8,2.2,41.8-0.7c14-2.8,28-5.8,42-14.8s28-24,41.8-21.3
	c13.9,2.6,27.5,23,41.4,31.6c13.8,8.7,27.8,5.7,41.8,6.5c14,0.9,28,5.5,42,7.5c14,2,28,1.4,41.8-9.6c13.9-11,27.5-32.4,41.4-33
	C765,21.8,779,41.8,793,52.8s28,13,42,4.8c14-8.1,28-26.5,41.8-37.8C890.7,8.5,895.7,9.5,909.6,6c13.8-3.5,23.3-4.7,30.3-6.1L960,0
	v76.8h-7c-7,0-21,0-34.8,0c-13.9,0-27.5,0-41.4,0c-13.8,0-27.8,0-41.8,0s-28,0-42,0s-28,0-41.8,0c-13.9,0-27.5,0-41.4,0
	c-13.8,0-27.8,0-41.8,0s-28,0-42,0s-28,0-41.8,0c-13.9,0-27.5,0-41.4,0c-13.8,0-27.8,0-41.8,0s-28,0-42,0s-28,0-41.8,0
	c-13.9,0-27.5,0-41.4,0c-13.8,0-27.8,0-41.8,0s-28,0-42,0s-28,0-41.8,0c-13.9,0-27.5,0-41.4,0c-13.8,0-27.8,0-41.8,0s-28,0-42,0
	s-28,0-41.8,0c-13.9,0-27.5,0-41.4,0c-13.8,0-27.8,0-34.8,0H0V63.8z"/>
<path class="st2" d="M0,43.8L7,45c7,1.1,21,3.5,34.8,5.1c13.9,1.7,27.5,2.7,41.4,1.5C97,50.5,111,47.1,125,42.1s28-11.6,42-11.3
	s28,7.7,41.8,11.2c13.9,3.5,27.5,3.1,41.4,3.1c13.8,0,27.8,0.4,41.8,2.4s28,5.6,42,5.6s28-3.6,41.8-10c13.9-6.3,27.5-15.3,41.4-16.1
	c13.8-0.9,27.8,6.5,41.8,9.5s28,1.6,42-2.7s28-11.7,41.8-13.7c13.9-2,27.5,1.4,41.4,7.7C598,34.1,612,43.5,626,43.5s28-9.4,42-9.2
	s28,9.8,41.8,7.3c13.9-2.5,27.5-17.1,41.4-24c13.8-6.8,27.8-5.8,41.8-1.3s28,12.5,42,17.5s28,7,41.8,9c13.9,2,27.5,4,41.4,2.5
	c13.8-1.5,27.8-6.5,34.8-9l7-2.5v43h-7c-7,0-21,0-34.8,0c-13.9,0-27.5,0-41.4,0c-13.8,0-27.8,0-41.8,0s-28,0-42,0s-28,0-41.8,0
	c-13.9,0-27.5,0-41.4,0c-13.8,0-27.8,0-41.8,0s-28,0-42,0s-28,0-41.8,0c-13.9,0-27.5,0-41.4,0c-13.8,0-27.8,0-41.8,0s-28,0-42,0
	s-28,0-41.8,0c-13.9,0-27.5,0-41.4,0c-13.8,0-27.8,0-41.8,0s-28,0-42,0s-28,0-41.8,0c-13.9,0-27.5,0-41.4,0c-13.8,0-27.8,0-41.8,0
	s-28,0-42,0s-28,0-41.8,0c-13.9,0-27.5,0-41.4,0c-13.8,0-27.8,0-34.8,0H0V43.8z"/>
<path class="st3" d="M0,46.8l7,3.7c7,3.6,21,11,34.8,12.5c13.9,1.5,27.5-2.9,41.4-4.2C97,57.5,111,59.1,125,55
	c14-4.2,28-14.2,42-16.4c14-2.1,28,3.5,41.8,6c13.9,2.5,27.5,1.9,41.4,2.4c13.8,0.5,27.8,2.1,41.8,2.8s28,0.3,42-0.5
	s28-2.2,41.8-0.3c13.9,1.8,27.5,6.8,41.4,7.3C431,56.8,445,52.8,459,50c14-2.9,28-4.5,42-8.4c14-3.8,28-9.8,41.8-11
	c13.9-1.1,27.5,2.5,41.4,8C598,44.1,612,51.5,626,53.1c14,1.7,28-2.3,42-4.1c14-1.9,28-1.5,41.8,2.5c13.9,4,27.5,11.6,41.4,13.5
	c13.8,1.8,27.8-2.2,41.8-8.4c14-6.1,28-14.5,42-15.1c14-0.7,28,6.3,41.8,5.1c13.9-1.1,27.5-10.5,41.4-9.1
	C932,38.8,946,50.8,953,56.8l7,6v14h-7c-7,0-21,0-34.8,0c-13.9,0-27.5,0-41.4,0c-13.8,0-27.8,0-41.8,0s-28,0-42,0s-28,0-41.8,0
	c-13.9,0-27.5,0-41.4,0c-13.8,0-27.8,0-41.8,0s-28,0-42,0s-28,0-41.8,0c-13.9,0-27.5,0-41.4,0c-13.8,0-27.8,0-41.8,0s-28,0-42,0
	s-28,0-41.8,0c-13.9,0-27.5,0-41.4,0c-13.8,0-27.8,0-41.8,0s-28,0-42,0s-28,0-41.8,0c-13.9,0-27.5,0-41.4,0c-13.8,0-27.8,0-41.8,0
	s-28,0-42,0s-28,0-41.8,0c-13.9,0-27.5,0-41.4,0c-13.8,0-27.8,0-34.8,0H0V46.8z"/>
<path class="st4" d="M0,59.8l7-2.2c7-2.1,21-6.5,34.8-6.5c13.9,0,27.5,4.4,41.4,7.2c13.8,2.8,27.8,4.2,41.8,4s28-1.8,42,0
	c14,1.8,28,7.2,41.8,7.2c13.9,0,27.5-5.4,41.4-7.5c13.8-2.2,27.8-1.2,41.8-1.5c14-0.4,28-2,42-1.2s28,4.2,41.8,6.7
	c13.9,2.5,27.5,4.1,41.4,1.6C431,65.1,445,58.5,459,59s28,8.1,42,11.5c14,3.3,28,2.3,41.8-1c13.9-3.4,27.5-9,41.4-12
	c13.8-3,27.8-3.4,41.8-5c14-1.7,28-4.7,42-2.4c14,2.4,28,10,41.8,14.7c13.9,4.7,27.5,6.3,41.4,2.7C765,63.8,779,54.8,793,54.3
	s28,7.5,42,8s28-6.5,41.8-6.2c13.9,0.4,27.5,8,41.4,11.5c13.8,3.5,27.8,2.9,34.8,2.5l7-0.3v7h-7c-7,0-21,0-34.8,0
	c-13.9,0-27.5,0-41.4,0c-13.8,0-27.8,0-41.8,0s-28,0-42,0s-28,0-41.8,0c-13.9,0-27.5,0-41.4,0c-13.8,0-27.8,0-41.8,0s-28,0-42,0
	s-28,0-41.8,0c-13.9,0-27.5,0-41.4,0c-13.8,0-27.8,0-41.8,0s-28,0-42,0s-28,0-41.8,0c-13.9,0-27.5,0-41.4,0c-13.8,0-27.8,0-41.8,0
	s-28,0-42,0s-28,0-41.8,0c-13.9,0-27.5,0-41.4,0c-13.8,0-27.8,0-41.8,0s-28,0-42,0s-28,0-41.8,0c-13.9,0-27.5,0-41.4,0
	c-13.8,0-27.8,0-34.8,0H0V59.8z"/>
</svg>
